<mxfile host="app.diagrams.net" modified="2023-10-31T21:27:14.033Z" agent="Mozilla/5.0 (Windows NT 10.0; Win64; x64) AppleWebKit/537.36 (KHTML, like Gecko) Chrome/118.0.0.0 Safari/537.36" etag="OXQLiwZDbU574-8WbcS2" version="22.0.8" type="github">
  <diagram name="Page-1" id="eiiIvkyjF3ZbP1Ql9cUi">
    <mxGraphModel dx="472" dy="1840" grid="1" gridSize="10" guides="1" tooltips="1" connect="1" arrows="1" fold="1" page="1" pageScale="1" pageWidth="850" pageHeight="1100" math="0" shadow="0">
      <root>
        <mxCell id="0" />
        <mxCell id="1" parent="0" />
        <mxCell id="7C7pXXn5ffuzZRnf7ZwT-7" value="&lt;font color=&quot;#ffffff&quot;&gt;Theater Management&lt;/font&gt;" style="text;strokeColor=none;align=center;fillColor=none;html=1;verticalAlign=middle;whiteSpace=wrap;rounded=0;fontSize=27;labelBackgroundColor=#FF3333;" vertex="1" parent="1">
          <mxGeometry x="40" y="20" width="80" height="30" as="geometry" />
        </mxCell>
        <mxCell id="7C7pXXn5ffuzZRnf7ZwT-12" value="" style="whiteSpace=wrap;html=1;aspect=fixed;fillColor=#F8CECC;strokeColor=#b85450;direction=north;rounded=1;" vertex="1" parent="1">
          <mxGeometry x="160" y="-30" width="170" height="170" as="geometry" />
        </mxCell>
        <mxCell id="7C7pXXn5ffuzZRnf7ZwT-21" value="&lt;div&gt;&lt;b&gt;&lt;font style=&quot;font-size: 20px;&quot;&gt;Theater Registration:&lt;/font&gt;&lt;/b&gt;&lt;/div&gt;&lt;div&gt;&lt;br&gt;&lt;/div&gt;&lt;div&gt;&lt;ul&gt;&lt;li&gt;Theaters can register and create profiles.&lt;/li&gt;&lt;li&gt;Provide essential details: location, contact info, and showtimes.&lt;/li&gt;&lt;/ul&gt;&lt;/div&gt;" style="text;strokeColor=none;align=center;fillColor=none;html=1;verticalAlign=middle;whiteSpace=wrap;rounded=0;" vertex="1" parent="1">
          <mxGeometry x="155" y="-5" width="165" height="140" as="geometry" />
        </mxCell>
        <mxCell id="7C7pXXn5ffuzZRnf7ZwT-22" value="" style="whiteSpace=wrap;html=1;aspect=fixed;fillColor=#F8CECC;strokeColor=#b85450;rounded=1;" vertex="1" parent="1">
          <mxGeometry x="330" y="-30" width="170" height="170" as="geometry" />
        </mxCell>
        <mxCell id="7C7pXXn5ffuzZRnf7ZwT-23" value="&lt;div style=&quot;font-size: 20px;&quot;&gt;&lt;b style=&quot;&quot;&gt;&lt;font style=&quot;font-size: 20px;&quot;&gt;Movie Scheduling:&lt;/font&gt;&lt;/b&gt;&lt;/div&gt;&lt;div style=&quot;font-size: 20px;&quot;&gt;&lt;br&gt;&lt;/div&gt;&lt;div&gt;&lt;ul&gt;&lt;li&gt;Add, edit, or remove movie showtimes.&lt;/li&gt;&lt;li&gt;Include movie titles, release dates, and pricing.&lt;/li&gt;&lt;/ul&gt;&lt;/div&gt;" style="text;strokeColor=none;align=center;fillColor=none;html=1;verticalAlign=middle;whiteSpace=wrap;rounded=0;fontSize=12;fontFamily=Helvetica;fontColor=default;" vertex="1" parent="1">
          <mxGeometry x="336.25" y="50" width="157.5" height="20" as="geometry" />
        </mxCell>
        <mxCell id="7C7pXXn5ffuzZRnf7ZwT-24" value="" style="whiteSpace=wrap;html=1;aspect=fixed;fillColor=#F8CECC;strokeColor=#b85450;rounded=1;" vertex="1" parent="1">
          <mxGeometry x="500" y="-30" width="170" height="170" as="geometry" />
        </mxCell>
        <mxCell id="7C7pXXn5ffuzZRnf7ZwT-25" value="&lt;div style=&quot;font-size: 20px;&quot;&gt;&lt;b style=&quot;&quot;&gt;&lt;font style=&quot;font-size: 20px;&quot;&gt;Seat Management:&lt;/font&gt;&lt;/b&gt;&lt;/div&gt;&lt;div style=&quot;font-size: 20px;&quot;&gt;&lt;br&gt;&lt;/div&gt;&lt;div&gt;&lt;ul&gt;&lt;li&gt;Manage seat availability for each screening.&lt;/li&gt;&lt;/ul&gt;&lt;/div&gt;" style="text;strokeColor=none;align=center;fillColor=none;html=1;verticalAlign=middle;whiteSpace=wrap;rounded=0;fontSize=12;fontFamily=Helvetica;fontColor=default;" vertex="1" parent="1">
          <mxGeometry x="525" y="40" width="120" height="30" as="geometry" />
        </mxCell>
        <mxCell id="7C7pXXn5ffuzZRnf7ZwT-26" value="" style="whiteSpace=wrap;html=1;aspect=fixed;fillColor=#F8CECC;strokeColor=#b85450;rounded=1;" vertex="1" parent="1">
          <mxGeometry x="670" y="-30" width="170" height="170" as="geometry" />
        </mxCell>
        <mxCell id="7C7pXXn5ffuzZRnf7ZwT-27" value="&lt;div style=&quot;font-size: 20px;&quot;&gt;&lt;b style=&quot;&quot;&gt;&lt;font style=&quot;font-size: 20px;&quot;&gt;Ticket Validation:&lt;/font&gt;&lt;/b&gt;&lt;/div&gt;&lt;div style=&quot;font-size: 20px;&quot;&gt;&lt;br&gt;&lt;/div&gt;&lt;div&gt;&lt;ul&gt;&lt;li&gt;Validate tickets at the theater.&lt;/li&gt;&lt;li&gt;Options: QR code scanning or booking details entry.&lt;/li&gt;&lt;/ul&gt;&lt;/div&gt;" style="text;strokeColor=none;align=center;fillColor=none;html=1;verticalAlign=middle;whiteSpace=wrap;rounded=0;fontSize=12;fontFamily=Helvetica;fontColor=default;" vertex="1" parent="1">
          <mxGeometry x="670" y="50" width="157.5" height="30" as="geometry" />
        </mxCell>
        <mxCell id="7C7pXXn5ffuzZRnf7ZwT-29" value="&lt;font color=&quot;#ffffff&quot;&gt;Movie Distributors&lt;/font&gt;" style="text;strokeColor=none;align=center;fillColor=none;html=1;verticalAlign=middle;whiteSpace=wrap;rounded=0;fontSize=27;labelBackgroundColor=#B266FF;" vertex="1" parent="1">
          <mxGeometry x="10" y="280" width="130" height="30" as="geometry" />
        </mxCell>
        <mxCell id="7C7pXXn5ffuzZRnf7ZwT-30" value="" style="whiteSpace=wrap;html=1;aspect=fixed;fillColor=#e1d5e7;strokeColor=#9673a6;direction=north;rounded=1;" vertex="1" parent="1">
          <mxGeometry x="140" y="222.5" width="165" height="165" as="geometry" />
        </mxCell>
        <mxCell id="7C7pXXn5ffuzZRnf7ZwT-31" value="&lt;div style=&quot;font-size: 20px;&quot;&gt;&lt;b style=&quot;&quot;&gt;&lt;font style=&quot;font-size: 20px;&quot;&gt;Movie Submission:&lt;/font&gt;&lt;/b&gt;&lt;/div&gt;&lt;div style=&quot;font-size: 20px;&quot;&gt;&lt;br&gt;&lt;/div&gt;&lt;div&gt;&lt;ul&gt;&lt;li&gt;Distributors submit films with details.&lt;/li&gt;&lt;li&gt;Include title, synopsis, trailer, preferences.&lt;/li&gt;&lt;/ul&gt;&lt;/div&gt;" style="text;strokeColor=none;align=center;fillColor=none;html=1;verticalAlign=middle;whiteSpace=wrap;rounded=0;fontSize=12;fontFamily=Helvetica;fontColor=default;" vertex="1" parent="1">
          <mxGeometry x="142.5" y="290" width="160" height="30" as="geometry" />
        </mxCell>
        <mxCell id="7C7pXXn5ffuzZRnf7ZwT-34" value="" style="whiteSpace=wrap;html=1;aspect=fixed;fillColor=#e1d5e7;strokeColor=#9673a6;direction=north;rounded=1;" vertex="1" parent="1">
          <mxGeometry x="305" y="222.5" width="165" height="165" as="geometry" />
        </mxCell>
        <mxCell id="7C7pXXn5ffuzZRnf7ZwT-35" value="&lt;div style=&quot;font-size: 20px;&quot;&gt;&lt;b style=&quot;&quot;&gt;&lt;font style=&quot;font-size: 20px;&quot;&gt;Screening Approval:&lt;/font&gt;&lt;/b&gt;&lt;/div&gt;&lt;div style=&quot;font-size: 20px;&quot;&gt;&lt;br&gt;&lt;/div&gt;&lt;div&gt;&lt;ul&gt;&lt;li&gt;App admins review and approve submissions.&lt;/li&gt;&lt;/ul&gt;&lt;/div&gt;" style="text;strokeColor=none;align=center;fillColor=none;html=1;verticalAlign=middle;whiteSpace=wrap;rounded=0;fontSize=12;fontFamily=Helvetica;fontColor=default;" vertex="1" parent="1">
          <mxGeometry x="322.5" y="290" width="130" height="30" as="geometry" />
        </mxCell>
        <mxCell id="7C7pXXn5ffuzZRnf7ZwT-37" value="" style="whiteSpace=wrap;html=1;aspect=fixed;fillColor=#e1d5e7;strokeColor=#9673a6;direction=north;rounded=1;" vertex="1" parent="1">
          <mxGeometry x="470" y="222.5" width="165" height="165" as="geometry" />
        </mxCell>
        <mxCell id="7C7pXXn5ffuzZRnf7ZwT-38" value="&lt;div&gt;&lt;b&gt;&lt;font style=&quot;font-size: 20px;&quot;&gt;Revenue Share:&lt;/font&gt;&lt;/b&gt;&lt;/div&gt;&lt;div&gt;&lt;br&gt;&lt;/div&gt;&lt;div&gt;&lt;ul&gt;&lt;li&gt;Automated revenue distribution.&lt;/li&gt;&lt;li&gt;Share ticket sales between theater and distributor.&lt;/li&gt;&lt;/ul&gt;&lt;/div&gt;" style="text;strokeColor=none;align=center;fillColor=none;html=1;verticalAlign=middle;whiteSpace=wrap;rounded=0;fontSize=12;fontFamily=Helvetica;fontColor=default;" vertex="1" parent="1">
          <mxGeometry x="477.5" y="290" width="150" height="30" as="geometry" />
        </mxCell>
        <mxCell id="7C7pXXn5ffuzZRnf7ZwT-39" value="" style="whiteSpace=wrap;html=1;aspect=fixed;fillColor=#e1d5e7;strokeColor=#9673a6;direction=north;rounded=1;" vertex="1" parent="1">
          <mxGeometry x="635" y="222.5" width="165" height="165" as="geometry" />
        </mxCell>
        <mxCell id="7C7pXXn5ffuzZRnf7ZwT-40" value="&lt;div style=&quot;font-size: 20px;&quot;&gt;&lt;b style=&quot;&quot;&gt;&lt;font style=&quot;font-size: 20px;&quot;&gt;Marketing and Promotion:&lt;/font&gt;&lt;/b&gt;&lt;/div&gt;&lt;div style=&quot;font-size: 20px;&quot;&gt;&lt;br&gt;&lt;/div&gt;&lt;div&gt;&lt;ul&gt;&lt;li&gt;Distributors promote films to users.&lt;/li&gt;&lt;/ul&gt;&lt;/div&gt;" style="text;strokeColor=none;align=center;fillColor=none;html=1;verticalAlign=middle;whiteSpace=wrap;rounded=0;fontSize=12;fontFamily=Helvetica;fontColor=default;" vertex="1" parent="1">
          <mxGeometry x="630" y="280" width="175" height="30" as="geometry" />
        </mxCell>
        <mxCell id="7C7pXXn5ffuzZRnf7ZwT-42" value="&lt;div&gt;&lt;font color=&quot;#ffffff&quot;&gt;For End-Users (Moviegoers):&lt;/font&gt;&lt;/div&gt;&lt;div&gt;&lt;br&gt;&lt;/div&gt;" style="text;strokeColor=none;align=center;fillColor=none;html=1;verticalAlign=middle;whiteSpace=wrap;rounded=0;fontSize=27;labelBackgroundColor=#3333FF;" vertex="1" parent="1">
          <mxGeometry x="20" y="530" width="130" height="30" as="geometry" />
        </mxCell>
        <mxCell id="7C7pXXn5ffuzZRnf7ZwT-43" value="" style="whiteSpace=wrap;html=1;aspect=fixed;fillColor=#dae8fc;strokeColor=#6c8ebf;direction=north;rounded=1;arcSize=14;" vertex="1" parent="1">
          <mxGeometry x="170" y="460" width="170" height="170" as="geometry" />
        </mxCell>
        <mxCell id="7C7pXXn5ffuzZRnf7ZwT-45" value="" style="whiteSpace=wrap;html=1;aspect=fixed;fillColor=#F8CECC;strokeColor=#b85450;rounded=1;" vertex="1" parent="1">
          <mxGeometry x="840" y="-30" width="170" height="170" as="geometry" />
        </mxCell>
        <mxCell id="7C7pXXn5ffuzZRnf7ZwT-46" value="&lt;div style=&quot;line-height: 120%;&quot;&gt;&lt;b&gt;&lt;font style=&quot;font-size: 20px;&quot;&gt;Revenue Tracking:&lt;/font&gt;&lt;/b&gt;&lt;/div&gt;&lt;div&gt;&lt;br&gt;&lt;/div&gt;&lt;div&gt;&lt;ul&gt;&lt;li&gt;Track ticket sales and revenue.&lt;/li&gt;&lt;li&gt;Analyze earnings per movie screening.&lt;/li&gt;&lt;/ul&gt;&lt;/div&gt;" style="text;strokeColor=none;align=center;fillColor=none;html=1;verticalAlign=middle;whiteSpace=wrap;rounded=0;fontSize=12;fontFamily=Helvetica;fontColor=default;" vertex="1" parent="1">
          <mxGeometry x="870" y="50" width="110" height="30" as="geometry" />
        </mxCell>
        <mxCell id="7C7pXXn5ffuzZRnf7ZwT-47" value="" style="whiteSpace=wrap;html=1;aspect=fixed;fillColor=#F8CECC;strokeColor=#b85450;rounded=1;" vertex="1" parent="1">
          <mxGeometry x="1010" y="-30" width="170" height="170" as="geometry" />
        </mxCell>
        <mxCell id="7C7pXXn5ffuzZRnf7ZwT-48" value="&lt;div&gt;&lt;b&gt;&lt;font style=&quot;font-size: 20px;&quot;&gt;Notification System:&lt;/font&gt;&lt;/b&gt;&lt;/div&gt;&lt;div&gt;&lt;br&gt;&lt;/div&gt;&lt;div&gt;&lt;ul&gt;&lt;li&gt;Automated notifications to users and distributors.&lt;/li&gt;&lt;li&gt;Communicate new showings, promos, or schedule changes.&lt;/li&gt;&lt;/ul&gt;&lt;/div&gt;" style="text;strokeColor=none;align=center;fillColor=none;html=1;verticalAlign=middle;whiteSpace=wrap;rounded=0;fontSize=12;fontFamily=Helvetica;fontColor=default;" vertex="1" parent="1">
          <mxGeometry x="990" y="45" width="190" height="30" as="geometry" />
        </mxCell>
        <mxCell id="7C7pXXn5ffuzZRnf7ZwT-49" value="&lt;div style=&quot;&quot;&gt;&lt;b style=&quot;&quot;&gt;&lt;font style=&quot;font-size: 15px;&quot;&gt;User Registration &amp;amp; Profiles:&lt;/font&gt;&lt;/b&gt;&lt;/div&gt;&lt;div style=&quot;font-size: 15px;&quot;&gt;&lt;br&gt;&lt;/div&gt;&lt;div&gt;&lt;ul&gt;&lt;li&gt;User accounts for ticket booking.&lt;/li&gt;&lt;li&gt;Optional personalization (favorite theaters, genres, payment info).&lt;/li&gt;&lt;/ul&gt;&lt;/div&gt;" style="text;strokeColor=none;align=center;fillColor=none;html=1;verticalAlign=middle;whiteSpace=wrap;rounded=0;fontSize=12;fontFamily=Helvetica;fontColor=default;" vertex="1" parent="1">
          <mxGeometry x="155" y="535" width="185" height="30" as="geometry" />
        </mxCell>
        <mxCell id="7C7pXXn5ffuzZRnf7ZwT-56" value="" style="whiteSpace=wrap;html=1;aspect=fixed;fillColor=#dae8fc;strokeColor=#6c8ebf;direction=north;rounded=1;arcSize=14;" vertex="1" parent="1">
          <mxGeometry x="340" y="460" width="170" height="170" as="geometry" />
        </mxCell>
        <mxCell id="7C7pXXn5ffuzZRnf7ZwT-57" value="&lt;div style=&quot;font-size: 15px;&quot;&gt;&lt;b style=&quot;&quot;&gt;&lt;font style=&quot;font-size: 15px;&quot;&gt;Movie Discovery:&lt;/font&gt;&lt;/b&gt;&lt;/div&gt;&lt;div style=&quot;font-size: 15px;&quot;&gt;&lt;br&gt;&lt;/div&gt;&lt;div&gt;&lt;ul&gt;&lt;li&gt;Browse movies with details.&lt;/li&gt;&lt;li&gt;Includes plot summaries, cast, and trailers.&lt;/li&gt;&lt;/ul&gt;&lt;/div&gt;" style="text;strokeColor=none;align=center;fillColor=none;html=1;verticalAlign=middle;whiteSpace=wrap;rounded=0;fontSize=12;fontFamily=Helvetica;fontColor=default;" vertex="1" parent="1">
          <mxGeometry x="356" y="535" width="137.5" height="30" as="geometry" />
        </mxCell>
        <mxCell id="7C7pXXn5ffuzZRnf7ZwT-58" value="" style="whiteSpace=wrap;html=1;aspect=fixed;fillColor=#dae8fc;strokeColor=#6c8ebf;direction=north;rounded=1;arcSize=14;" vertex="1" parent="1">
          <mxGeometry x="510" y="460" width="170" height="170" as="geometry" />
        </mxCell>
        <mxCell id="7C7pXXn5ffuzZRnf7ZwT-59" value="&lt;div&gt;&lt;b&gt;&lt;font style=&quot;font-size: 15px;&quot;&gt;Showtime Selection:&lt;/font&gt;&lt;/b&gt;&lt;/div&gt;&lt;div&gt;&lt;br&gt;&lt;/div&gt;&lt;div&gt;&lt;ul&gt;&lt;li&gt;Choose specific showtimes and theaters.&lt;/li&gt;&lt;/ul&gt;&lt;/div&gt;" style="text;strokeColor=none;align=center;fillColor=none;html=1;verticalAlign=middle;whiteSpace=wrap;rounded=0;fontSize=12;fontFamily=Helvetica;fontColor=default;" vertex="1" parent="1">
          <mxGeometry x="518.75" y="520" width="132.5" height="30" as="geometry" />
        </mxCell>
        <mxCell id="7C7pXXn5ffuzZRnf7ZwT-60" value="" style="whiteSpace=wrap;html=1;aspect=fixed;fillColor=#dae8fc;strokeColor=#6c8ebf;direction=north;rounded=1;arcSize=14;" vertex="1" parent="1">
          <mxGeometry x="680" y="460" width="170" height="170" as="geometry" />
        </mxCell>
        <mxCell id="7C7pXXn5ffuzZRnf7ZwT-61" value="&lt;div&gt;&lt;b&gt;&lt;font style=&quot;font-size: 15px;&quot;&gt;Seat Selection:&lt;/font&gt;&lt;/b&gt;&lt;/div&gt;&lt;div&gt;&lt;br&gt;&lt;/div&gt;&lt;div&gt;&lt;ul&gt;&lt;li&gt;Pick seats from a map.&lt;/li&gt;&lt;/ul&gt;&lt;/div&gt;" style="text;strokeColor=none;align=center;fillColor=none;html=1;verticalAlign=middle;whiteSpace=wrap;rounded=0;fontSize=12;fontFamily=Helvetica;fontColor=default;" vertex="1" parent="1">
          <mxGeometry x="707.5" y="505" width="115" height="30" as="geometry" />
        </mxCell>
        <mxCell id="7C7pXXn5ffuzZRnf7ZwT-64" value="" style="whiteSpace=wrap;html=1;aspect=fixed;fillColor=#dae8fc;strokeColor=#6c8ebf;direction=north;rounded=1;arcSize=14;" vertex="1" parent="1">
          <mxGeometry x="850" y="460" width="170" height="170" as="geometry" />
        </mxCell>
        <mxCell id="7C7pXXn5ffuzZRnf7ZwT-65" value="&lt;div&gt;&lt;b&gt;&lt;font style=&quot;font-size: 15px;&quot;&gt;Booking &amp;amp; Payment:&lt;/font&gt;&lt;/b&gt;&lt;/div&gt;&lt;div&gt;&lt;br&gt;&lt;/div&gt;&lt;div&gt;&lt;ul&gt;&lt;li&gt;Secure ticket booking and payment.&lt;/li&gt;&lt;/ul&gt;&lt;/div&gt;" style="text;strokeColor=none;align=center;fillColor=none;html=1;verticalAlign=middle;whiteSpace=wrap;rounded=0;fontSize=12;fontFamily=Helvetica;fontColor=default;" vertex="1" parent="1">
          <mxGeometry x="855" y="505" width="160" height="30" as="geometry" />
        </mxCell>
        <mxCell id="7C7pXXn5ffuzZRnf7ZwT-66" value="" style="whiteSpace=wrap;html=1;aspect=fixed;fillColor=#dae8fc;strokeColor=#6c8ebf;direction=north;rounded=1;arcSize=14;" vertex="1" parent="1">
          <mxGeometry x="1020" y="460" width="170" height="170" as="geometry" />
        </mxCell>
        <mxCell id="7C7pXXn5ffuzZRnf7ZwT-67" value="&lt;div&gt;&lt;b&gt;&lt;font style=&quot;font-size: 15px;&quot;&gt;Ticket Retrieval:&lt;/font&gt;&lt;/b&gt;&lt;/div&gt;&lt;div&gt;&lt;br&gt;&lt;/div&gt;&lt;div&gt;&lt;ul&gt;&lt;li&gt;Access tickets via app, email, website.&lt;/li&gt;&lt;li&gt;Includes QR codes for quick entry.&lt;/li&gt;&lt;/ul&gt;&lt;/div&gt;" style="text;strokeColor=none;align=center;fillColor=none;html=1;verticalAlign=middle;whiteSpace=wrap;rounded=0;fontSize=12;fontFamily=Helvetica;fontColor=default;" vertex="1" parent="1">
          <mxGeometry x="1005" y="520" width="180" height="30" as="geometry" />
        </mxCell>
        <mxCell id="7C7pXXn5ffuzZRnf7ZwT-69" value="" style="whiteSpace=wrap;html=1;aspect=fixed;fillColor=#dae8fc;strokeColor=#6c8ebf;direction=north;rounded=1;arcSize=14;" vertex="1" parent="1">
          <mxGeometry x="1190" y="460" width="170" height="170" as="geometry" />
        </mxCell>
        <mxCell id="7C7pXXn5ffuzZRnf7ZwT-70" value="&lt;div style=&quot;font-size: 15px;&quot;&gt;&lt;b style=&quot;&quot;&gt;&lt;font style=&quot;font-size: 15px;&quot;&gt;Reviews &amp;amp; Ratings:&lt;/font&gt;&lt;/b&gt;&lt;/div&gt;&lt;div style=&quot;font-size: 15px;&quot;&gt;&lt;br&gt;&lt;/div&gt;&lt;div&gt;&lt;ul&gt;&lt;li&gt;User-generated movie and theater reviews.&lt;/li&gt;&lt;/ul&gt;&lt;/div&gt;" style="text;strokeColor=none;align=center;fillColor=none;html=1;verticalAlign=middle;whiteSpace=wrap;rounded=0;fontSize=12;fontFamily=Helvetica;fontColor=default;" vertex="1" parent="1">
          <mxGeometry x="1205" y="520" width="140" height="30" as="geometry" />
        </mxCell>
        <mxCell id="7C7pXXn5ffuzZRnf7ZwT-71" value="" style="whiteSpace=wrap;html=1;aspect=fixed;fillColor=#dae8fc;strokeColor=#6c8ebf;direction=north;rounded=1;arcSize=14;" vertex="1" parent="1">
          <mxGeometry x="1360" y="460" width="170" height="170" as="geometry" />
        </mxCell>
        <mxCell id="7C7pXXn5ffuzZRnf7ZwT-72" value="&lt;div&gt;&lt;b&gt;&lt;font style=&quot;font-size: 15px;&quot;&gt;Notifications:&lt;/font&gt;&lt;/b&gt;&lt;/div&gt;&lt;div&gt;&lt;br&gt;&lt;/div&gt;&lt;div&gt;&lt;ul&gt;&lt;li&gt;Receive screening alerts, promos, schedule changes.&lt;/li&gt;&lt;/ul&gt;&lt;/div&gt;" style="text;strokeColor=none;align=center;fillColor=none;html=1;verticalAlign=middle;whiteSpace=wrap;rounded=0;fontSize=12;fontFamily=Helvetica;fontColor=default;" vertex="1" parent="1">
          <mxGeometry x="1372.5" y="490" width="145" height="70" as="geometry" />
        </mxCell>
        <mxCell id="7C7pXXn5ffuzZRnf7ZwT-73" value="" style="whiteSpace=wrap;html=1;aspect=fixed;fillColor=#dae8fc;strokeColor=#6c8ebf;direction=north;rounded=1;arcSize=14;" vertex="1" parent="1">
          <mxGeometry x="1530" y="460" width="170" height="170" as="geometry" />
        </mxCell>
        <mxCell id="7C7pXXn5ffuzZRnf7ZwT-74" value="&lt;div style=&quot;font-size: 15px;&quot;&gt;&lt;b style=&quot;&quot;&gt;&lt;font style=&quot;font-size: 15px;&quot;&gt;Support &amp;amp; Feedback:&lt;/font&gt;&lt;/b&gt;&lt;/div&gt;&lt;div style=&quot;font-size: 15px;&quot;&gt;&lt;br&gt;&lt;/div&gt;&lt;div&gt;&lt;ul&gt;&lt;li&gt;Contact customer support.&lt;/li&gt;&lt;li&gt;Provide feedback on experiences.&lt;/li&gt;&lt;/ul&gt;&lt;/div&gt;" style="text;strokeColor=none;align=center;fillColor=none;html=1;verticalAlign=middle;whiteSpace=wrap;rounded=0;fontSize=12;fontFamily=Helvetica;fontColor=default;" vertex="1" parent="1">
          <mxGeometry x="1530" y="520" width="170" height="30" as="geometry" />
        </mxCell>
        <mxCell id="7C7pXXn5ffuzZRnf7ZwT-75" value="" style="whiteSpace=wrap;html=1;aspect=fixed;fillColor=#dae8fc;strokeColor=#6c8ebf;direction=north;rounded=1;arcSize=14;" vertex="1" parent="1">
          <mxGeometry x="1700" y="460" width="170" height="170" as="geometry" />
        </mxCell>
        <mxCell id="7C7pXXn5ffuzZRnf7ZwT-76" value="&lt;div style=&quot;font-size: 15px;&quot;&gt;&lt;b style=&quot;&quot;&gt;&lt;font style=&quot;font-size: 15px;&quot;&gt;History:&lt;/font&gt;&lt;/b&gt;&lt;/div&gt;&lt;div style=&quot;font-size: 15px;&quot;&gt;&lt;br&gt;&lt;/div&gt;&lt;div&gt;&lt;ul&gt;&lt;li&gt;View past booking history.&lt;/li&gt;&lt;/ul&gt;&lt;/div&gt;" style="text;strokeColor=none;align=center;fillColor=none;html=1;verticalAlign=middle;whiteSpace=wrap;rounded=0;fontSize=12;fontFamily=Helvetica;fontColor=default;" vertex="1" parent="1">
          <mxGeometry x="1720" y="500" width="140" height="30" as="geometry" />
        </mxCell>
        <mxCell id="7C7pXXn5ffuzZRnf7ZwT-77" value="" style="whiteSpace=wrap;html=1;aspect=fixed;fillColor=#dae8fc;strokeColor=#6c8ebf;direction=north;rounded=1;arcSize=14;" vertex="1" parent="1">
          <mxGeometry x="1870" y="460" width="170" height="170" as="geometry" />
        </mxCell>
        <mxCell id="7C7pXXn5ffuzZRnf7ZwT-78" value="&lt;div&gt;&lt;b&gt;&lt;font style=&quot;font-size: 15px;&quot;&gt;Accessibility &amp;amp; Support:&lt;/font&gt;&lt;/b&gt;&lt;/div&gt;&lt;div&gt;&lt;br&gt;&lt;/div&gt;&lt;div&gt;&lt;ul&gt;&lt;li&gt;Ensure app is accessible.&lt;/li&gt;&lt;li&gt;Offer responsive user support.&lt;/li&gt;&lt;/ul&gt;&lt;/div&gt;" style="text;strokeColor=none;align=center;fillColor=none;html=1;verticalAlign=middle;whiteSpace=wrap;rounded=0;fontSize=12;fontFamily=Helvetica;fontColor=default;" vertex="1" parent="1">
          <mxGeometry x="1875" y="520" width="160" height="30" as="geometry" />
        </mxCell>
        <mxCell id="7C7pXXn5ffuzZRnf7ZwT-79" value="" style="whiteSpace=wrap;html=1;aspect=fixed;fillColor=#dae8fc;strokeColor=#6c8ebf;direction=north;rounded=1;arcSize=14;" vertex="1" parent="1">
          <mxGeometry x="2040" y="460" width="170" height="170" as="geometry" />
        </mxCell>
        <mxCell id="7C7pXXn5ffuzZRnf7ZwT-80" value="&lt;div style=&quot;font-size: 15px;&quot;&gt;&lt;b style=&quot;&quot;&gt;&lt;font style=&quot;font-size: 15px;&quot;&gt;Privacy &amp;amp; Security:&lt;/font&gt;&lt;/b&gt;&lt;/div&gt;&lt;div style=&quot;font-size: 15px;&quot;&gt;&lt;br&gt;&lt;/div&gt;&lt;div&gt;&lt;ul&gt;&lt;li&gt;Protect user data and payment info.&lt;/li&gt;&lt;/ul&gt;&lt;/div&gt;" style="text;strokeColor=none;align=center;fillColor=none;html=1;verticalAlign=middle;whiteSpace=wrap;rounded=0;fontSize=12;fontFamily=Helvetica;fontColor=default;" vertex="1" parent="1">
          <mxGeometry x="2030" y="505" width="190" height="30" as="geometry" />
        </mxCell>
      </root>
    </mxGraphModel>
  </diagram>
</mxfile>
